<svg width="115" height="96" viewBox="0 0 115 96" fill="none" xmlns="http://www.w3.org/2000/svg">
<path d="M106.733 10.8338C96.3065 24.4871 89.7131 38.2647 86.9531 52.1661C90.94 52.9108 93.8531 53.7798 95.6931 54.7726C98.4531 56.014 100.753 57.3792 102.593 58.8686C104.433 60.3581 105.967 61.9718 107.193 63.7094C108.42 66.4401 109.033 69.6672 109.033 73.3908C109.033 79.1005 107.04 84.0654 103.053 88.2854C99.3731 92.2574 94.4665 94.2432 88.3331 94.2432C80.9731 94.2432 74.5331 91.2643 69.0131 85.3065C65.3331 80.0934 63.4931 73.7632 63.4931 66.3159C63.4931 64.3302 63.6465 62.4683 63.9531 60.7305C64.26 58.9929 64.72 57.131 65.3331 55.145C65.9465 52.6627 66.56 50.8009 67.1731 49.5596C69.0131 45.0912 71.16 40.6228 73.6131 36.1545C76.3731 31.6861 79.44 27.3419 82.8131 23.1218C85.5731 19.6464 88.3331 16.5434 91.0931 13.8127C94.16 10.8338 97.38 7.97902 100.753 5.24834C101.98 4.50364 103.053 3.88302 103.973 3.38652C105.2 2.64182 106.427 1.89709 107.653 1.15236C107.96 1.15236 108.113 1.15236 108.113 1.15236C108.42 0.904121 108.727 0.779999 109.033 0.779999C111.487 0.779999 112.713 1.89709 112.713 4.13128C112.713 4.62775 112.56 5.00011 112.253 5.24834L106.733 10.8338ZM48.3131 5.24834C47.3931 6.24133 46.4731 7.23429 45.5531 8.22725C44.6331 8.97201 43.8665 9.84084 43.2531 10.8338C32.2132 23.9907 25.3132 37.7681 22.5532 52.1661C26.2332 52.9108 29.2999 53.7798 31.7532 54.7726C36.9665 57.0068 40.6465 59.9857 42.7931 63.7094C43.4065 65.1988 44.02 66.8125 44.6331 68.5501C45.2465 70.0395 45.5531 71.6532 45.5531 73.3908C45.5531 79.1005 43.4065 84.0654 39.1131 88.2854C35.1265 92.2574 30.2199 94.2432 24.3932 94.2432C16.1132 94.2432 9.82651 91.2643 5.5332 85.3065C1.85318 80.0934 0.0131836 73.7632 0.0131836 66.3159C0.0131836 62.5923 0.473184 58.8686 1.39318 55.145C2.00651 52.6627 2.61985 50.8009 3.23318 49.5596C5.0732 45.0912 7.21985 40.6228 9.6732 36.1545C12.4332 31.6861 15.4999 27.3419 18.8732 23.1218C23.7799 16.4193 29.7599 10.4615 36.8131 5.24834C38.04 4.50364 39.1131 3.88302 40.0331 3.38652C41.26 2.64182 42.4865 1.89709 43.7131 1.15236C44.02 1.15236 44.1731 1.15236 44.1731 1.15236C44.1731 0.904121 44.3265 0.779999 44.6331 0.779999C45.5531 0.779999 46.4731 1.15236 47.3931 1.89708C48.3131 2.39357 48.7731 3.13829 48.7731 4.13128C48.7731 4.62775 48.62 5.00011 48.3131 5.24834Z" fill="url(#paint0_linear_5_3)"/>
<defs>
<linearGradient id="paint0_linear_5_3" x1="0.0131831" y1="47.5116" x2="113.332" y2="54.5429" gradientUnits="userSpaceOnUse">
<stop stop-color="#6CCF81"/>
<stop offset="1" stop-color="#B3D16D"/>
</linearGradient>
</defs>
</svg>
