<svg width="1440" height="566" viewBox="0 0 1440 566" fill="none" xmlns="http://www.w3.org/2000/svg">
<path d="M-0.19574 51.9916L-0.195716 566H1439.85V34.1263C1115.11 230.645 901.666 206.983 633.865 117.87C348.243 22.827 176.065 -55.2006 -0.19574 51.9916Z" fill="url(#paint0_linear_9_6)" fill-opacity="0.5"/>
<path d="M-0.195716 181.516V566H1439.85V25.1936C1269.32 115.531 1110.65 388.084 559.054 198.264C276.913 101.171 123.586 62.0409 -0.195716 181.516Z" fill="url(#paint1_linear_9_6)" fill-opacity="0.6"/>
<path d="M-0.195716 308.125V566H1439.85V39.7092C1269.32 122.817 1086.08 557.805 555.704 232.879C292.974 71.922 63.2899 197.922 -0.195716 308.125Z" fill="url(#paint2_linear_9_6)"/>
<defs>
<linearGradient id="paint0_linear_9_6" x1="-0.195746" y1="283.138" x2="1428.81" y2="470.317" gradientUnits="userSpaceOnUse">
<stop stop-color="#6CCF81"/>
<stop offset="1" stop-color="#B3D16D"/>
</linearGradient>
<linearGradient id="paint1_linear_9_6" x1="-0.195746" y1="283.138" x2="1428.81" y2="470.317" gradientUnits="userSpaceOnUse">
<stop stop-color="#6CCF81"/>
<stop offset="1" stop-color="#B3D16D"/>
</linearGradient>
<linearGradient id="paint2_linear_9_6" x1="-0.195746" y1="283.138" x2="1428.81" y2="470.317" gradientUnits="userSpaceOnUse">
<stop stop-color="#6CCF81"/>
<stop offset="1" stop-color="#B3D16D"/>
</linearGradient>
</defs>
</svg>
